# xmcd CD database file
#
# Track frame offsets:
#	150
#	17680
#	32078
#	49576
#	68484
#
# Disc length: 1143 seconds
#
# Revision: 0
# Processed by: cddbd v1.5.1PL0 Copyright (c) Steve Scherf et al.
# Submitted via: CDex 1.51
#
DISCID=33047505
DTITLE=Horsell Common - Lost A Lot Of Blood
DYEAR=2005
DGENRE=Rock
TTITLE0=The Disaster
TTITLE1=Sentenced
TTITLE2=This Modern Shame
TTITLE3=Lookaway
TTITLE4=Dean Youngblood
EXTD=YEAR: 2005
EXTT0=
EXTT1=
EXTT2=
EXTT3=
EXTT4=
PLAYORDER=
